<?xml version="1.0" encoding="utf-8"?>
<!-- Generator: Adobe Illustrator 26.0.0, SVG Export Plug-In . SVG Version: 6.00 Build 0)  -->
<svg version="1.1" id="mdi-pokeball" xmlns="http://www.w3.org/2000/svg" xmlns:xlink="http://www.w3.org/1999/xlink" x="0px"
	 y="0px" viewBox="0 0 40 40" style="enable-background:new 0 0 40 40;" xml:space="preserve">
<style type="text/css">
	.st0{opacity:0.2;fill:#FFFFFF;}
</style>
<path class="st0" d="M20,3.3c9.2,0,16.7,7.5,16.7,16.7S29.2,36.7,20,36.7S3.3,29.2,3.3,20S10.8,3.3,20,3.3 M20,6.7
	c-6.8,0-12.4,5.1-13.2,11.7h6.8c0.7-2.9,3.3-5,6.4-5s5.7,2.1,6.4,5h6.8C32.4,11.8,26.8,6.7,20,6.7 M20,33.3
	c6.8,0,12.4-5.1,13.2-11.7h-6.8c-0.7,2.9-3.4,5-6.4,5s-5.7-2.1-6.4-5H6.8C7.6,28.2,13.2,33.3,20,33.3 M20,16.7
	c-1.8,0-3.3,1.5-3.3,3.3s1.5,3.3,3.3,3.3s3.3-1.5,3.3-3.3S21.8,16.7,20,16.7z"/>
</svg>
